# xmcd
#
# Track frame offsets: 
#        150
#        14635
#        25949
#        38185
#        52717
#        67413
#        78449
#        90423
#        103659
#        116569
#        127275
#        140235
#        151337
#        161774
#        173297
#        181850
#        196056
#        207604
#        217877
#        229629
#
# Disc length: 3225 seconds
#
# Revision: 0
# Processed by: cddbd v1.5.2PL0 Copyright (c) Steve Scherf et al.
# Submitted via: ExactAudioCopy v0.95b3
#
DISCID=140c9714
DTITLE=Nat King Cole  - The World of Nat King Cole [CD1)
DYEAR=1900
DGENRE=
TTITLE0=01 - Unforgettable
TTITLE1=02 - This Can't Be Love
TTITLE2=03 - Papa Loves Mambo
TTITLE3=04 - Too Young
TTITLE4=05 - Mona Lisa
TTITLE5=06 - Straighten Up And Fly Right
TTITLE6=07 - Nature Boy
TTITLE7=08 - Answer Me
TTITLE8=09 - Darling, Je Vous Aime Beaucoup
TTITLE9=10 - It's Crazy (But I'm In Love)
TTITLE10=11 - Dream A Little Dream Of Me
TTITLE11=12 - Open Up The Doghouse
TTITLE12=13 - Long Long Ago
TTITLE13=14 - Orange Coloured Sky
TTITLE14=15 - Almost Like Being In Love
TTITLE15=16 - Sweet Lorraine
TTITLE16=17 - Too Marvellous For Words
TTITLE17=18 - 'Deed I Do
TTITLE18=19 - You Stepped Out Of A Dream
TTITLE19=20 - My Baby Just Cares For Me
EXTD=
EXTT0=
EXTT1=
EXTT2=
EXTT3=
EXTT4=
EXTT5=
EXTT6=
EXTT7=
EXTT8=
EXTT9=
EXTT10=
EXTT11=
EXTT12=
EXTT13=
EXTT14=
EXTT15=
EXTT16=
EXTT17=
EXTT18=
EXTT19=
PLAYORDER=
